<svg xmlns="http://www.w3.org/2000/svg">
              <defs>

                <symbol id="garik-group-logo-1" viewBox="0 0 2048 2048">
                  <line
                style="fill: none;
                    stroke: #ededed;
                    stroke-miterlimit: 10;
                    stroke-width: 3px;"
                x1="301.68"
                y1="500.14"
                x2="301.67"
                y2="500.14"
              />
              <g>
                <polygon
                  style="fill: none;
                    stroke: #ededed;
                    stroke-miterlimit: 10;"
                  points="884.19 1110.37 884.19 1222.53 849.73 1227.69 849.73 1115.54 884.19 1110.37"
                />
                <polygon
                  style="fill: none;
                    stroke: #ededed;
                    stroke-miterlimit: 10;"
                  points="937.11 1103.38 937.11 1215.55 894.77 1220.71 894.77 1108.55 937.11 1103.38"
                />
                <path
                  style="fill: none;
                    stroke: #ededed;
                    stroke-miterlimit: 10;
                    stroke-width: 3px;"
                  d="M795.79,1066.42v225.73c51.44-21.75,124.59-36.1,206.7-38.25v-211.37l-206.7,23.9Zm88.4,156.12l-34.46,5.16v-112.16l34.46-5.17v112.17Zm52.93-6.99l-42.34,5.16v-112.16l42.34-5.17v112.17Z"
                />
                <polygon
                  style="fill: none;
                    stroke: #ededed;
                    stroke-miterlimit: 10;
                    stroke-width: 3px;"
                  points="1272.71 1054.98 1241.71 1048.61 1233.42 1025.55 1135.46 753.36 1004.84 1042.24 1002.49 1042.52 795.79 1066.42 760.77 1070.47 910.76 771.06 973.37 755.19 973.37 702.61 996.61 696.72 996.61 890.32 1024 829.74 1024 742.35 1068.61 731.05 1068.62 731.05 1146.52 711.3 1272.71 1054.98"
                />
                <path
                  style="fill: none;
                    stroke: #ededed;
                    stroke-miterlimit: 10;
                    stroke-width: 3px;"
                  d="M1233.42,1025.55v259.32c-20.53-7.28-43.75-13.5-69.04-18.43v-176.73l-65.99-6.23v173.57c-23.81-2.25-48.72-3.44-74.38-3.44-7.23,0-14.41,.09-21.51,.28v-206.45l2.35-5.21,130.61-288.88,97.96,272.2Z"
                />
                <path
                  style="fill: none;
                    stroke: #ededed;
                    stroke-miterlimit: 10;"
                  d="M1164.37,1089.71v176.73c-20.72-4.04-42.83-7.22-65.99-9.39v-173.57l65.99,6.23Z"
                />
                <path
                  style="fill: none;
                    stroke: #ededed;
                    stroke-miterlimit: 10;
                    stroke-width: 3px;"
                  d="M1325.78,1351.28c-63.49-37.4-174.92-62.2-301.78-62.2s-238.29,24.79-301.78,62.2c8.85-22.51,35.15-42.89,73.56-59.13,51.44-21.75,124.59-36.1,206.7-38.25,7.1-.19,14.28-.28,21.51-.28,25.65,0,50.56,1.19,74.38,3.44,23.16,2.17,45.28,5.35,65.99,9.39,25.29,4.94,48.51,11.16,69.04,18.43,48.61,17.24,82.13,40.4,92.36,66.41Z"
                />
              </g>
              <path
                style="fill: none;
                    stroke: #ededed;
                    stroke-miterlimit: 10;
                    stroke-width: 3px;"
                d="M865.45,1424.43c-7.64,0-14.49-1.19-20.56-3.59-6.07-2.39-11.22-5.73-15.45-10-4.23-4.28-7.47-9.38-9.73-15.32-2.26-5.93-3.38-12.44-3.38-19.52s.97-13.33,2.9-19.32c1.93-5.98,4.87-11.22,8.83-15.73,3.95-4.5,8.99-8.05,15.11-10.62,6.12-2.57,13.31-3.86,21.59-3.86,2.94,0,5.89,.23,8.83,.69,2.94,.46,5.79,1.22,8.55,2.28,2.76,1.06,5.31,2.44,7.66,4.14,2.35,1.7,4.3,3.79,5.86,6.28,1.84,2.85,2.64,5.91,2.41,9.18-.23,3.27-1.96,5.96-5.17,8.07-2.58,1.75-5.34,2.62-8.28,2.62s-5.7-.85-8.28-2.55c-2.58-1.7-4.69-4.07-6.35-7.11-.92-1.75-1.63-3.38-2.14-4.9-.51-1.52-.99-2.85-1.45-4-.46-1.15-.99-2.05-1.59-2.69-.6-.64-1.4-.97-2.41-.97-1.93,0-3.79,.97-5.59,2.9-1.79,1.93-3.38,4.62-4.76,8.07-1.38,3.45-2.48,7.54-3.31,12.28-.83,4.74-1.24,9.86-1.24,15.38s.46,10.03,1.38,14.35c.92,4.33,2.23,8.12,3.93,11.38,1.7,3.27,3.82,5.86,6.35,7.8,2.53,1.93,5.4,3.08,8.62,3.45v-12.28c0-5.33-.48-9.36-1.45-12.07-.97-2.71-2.14-4.9-3.52-6.55h36.84c-1.29,1.66-2.44,3.84-3.45,6.55-1.01,2.71-1.52,6.74-1.52,12.07v4.97c0,5.33,.5,9.36,1.52,12.07,1.01,2.71,2.16,4.9,3.45,6.55h-34.22Z"
              />
              <path
                style="fill: none;
                    stroke: #ededed;
                    stroke-miterlimit: 10;
                    stroke-width: 3px;"
                d="M960.1,1424.43c1.29-1.66,2.11-3.88,2.48-6.69,.37-2.8-.19-6.78-1.66-11.93l-4.28-15.45h-28.01l-4.28,15.45c-1.47,5.15-2.02,9.13-1.66,11.93,.37,2.81,1.19,5.04,2.48,6.69h-19.73c1.29-1.66,2.76-3.88,4.42-6.69,1.66-2.8,3.22-6.78,4.69-11.93l16.56-59.33c1.38-5.15,1.91-9.15,1.59-12-.32-2.85-1.13-5.06-2.41-6.62h41.81c-1.29,1.57-2.12,3.77-2.48,6.62-.37,2.85,.18,6.85,1.66,12l16.56,59.33c1.47,5.15,3.04,9.13,4.69,11.93,1.66,2.81,3.13,5.04,4.42,6.69h-36.84Zm-5.66-41.81l-10.07-36.15c-.55-2.12-1.1-3.91-1.66-5.38-.37,.74-.69,1.56-.97,2.48-.28,.92-.55,1.89-.83,2.9l-10.07,36.15h23.59Z"
              />
              <path
                style="fill: none;
                    stroke: #ededed;
                    stroke-miterlimit: 10;
                    stroke-width: 3px;"
                d="M1085.65,1354.34c0,4.51-.6,8.35-1.79,11.52-1.2,3.17-2.97,5.82-5.31,7.93-2.35,2.12-5.17,3.79-8.49,5.04-3.31,1.24-7.13,2.14-11.45,2.69,3.59,4.51,6.83,9.11,9.73,13.8,2.9,4.69,5.47,9.04,7.73,13.04,2.25,4,4.28,7.45,6.07,10.35s3.43,4.81,4.9,5.73h-37.25c0-2.12-.25-4.74-.76-7.86-.51-3.13-1.96-7.22-4.35-12.28l-10.07-20.83v22.35c0,5.33,.5,9.36,1.52,12.07,1.01,2.71,2.16,4.9,3.45,6.55h-36.84c1.29-1.66,2.44-3.84,3.45-6.55,1.01-2.71,1.52-6.74,1.52-12.07v-59.33c0-5.33-.51-9.36-1.52-12.07-1.01-2.71-2.16-4.9-3.45-6.55h42.63c5.79,0,11.15,.37,16.07,1.1,4.92,.74,9.17,2.09,12.76,4.07,3.59,1.98,6.39,4.69,8.42,8.14,2.02,3.45,3.04,7.84,3.04,13.18Zm-51.05,14.9c0,1.56,.44,2.64,1.31,3.24,.87,.6,2.23,.9,4.07,.9,1.66,0,3.45-.11,5.38-.34,1.93-.23,3.77-.92,5.52-2.07,1.75-1.15,3.2-3.01,4.35-5.59,1.15-2.57,1.72-6.21,1.72-10.9,0-4.05-.58-7.26-1.72-9.66-1.15-2.39-2.55-4.23-4.21-5.52-1.66-1.29-3.38-2.12-5.17-2.48-1.79-.37-3.38-.55-4.76-.55-4.32,0-6.48,1.43-6.48,4.28v28.7Z"
              />
              <path
                style="fill: none;
                    stroke: #ededed;
                    stroke-miterlimit: 10;
                    stroke-width: 3px;"
                d="M1094.07,1424.43c1.29-1.66,2.44-3.84,3.45-6.55,1.01-2.71,1.52-6.74,1.52-12.07v-59.33c0-5.33-.51-9.38-1.52-12.14-1.01-2.76-2.16-4.92-3.45-6.49h36.84c-1.29,1.57-2.44,3.73-3.45,6.49-1.01,2.76-1.52,6.81-1.52,12.14v59.33c0,5.33,.5,9.36,1.52,12.07,1.01,2.71,2.16,4.9,3.45,6.55h-36.84Z"
              />
              <path
                style="fill: none;
                    stroke: #ededed;
                    stroke-miterlimit: 10;
                    stroke-width: 3px;"
                d="M1138.08,1424.43c1.29-1.66,2.44-3.84,3.45-6.55,1.01-2.71,1.52-6.74,1.52-12.07v-59.33c0-5.33-.51-9.38-1.52-12.14-1.01-2.76-2.16-4.92-3.45-6.49h36.84c-1.29,1.57-2.44,3.73-3.45,6.49-1.01,2.76-1.52,6.81-1.52,12.14v21.52l21.25-24.97c.37-.46,1.01-1.36,1.93-2.69,.92-1.33,1.84-2.78,2.76-4.35,.92-1.56,1.72-3.1,2.42-4.62,.69-1.52,.99-2.69,.9-3.52h20.01c-2.39,1.38-5.04,3.54-7.93,6.49-2.9,2.94-5.86,6.21-8.9,9.8-3.04,3.59-6.09,7.36-9.18,11.31-3.08,3.96-6,7.68-8.76,11.18,2.85,3.4,5.98,7.02,9.38,10.83,3.4,3.82,6.83,7.68,10.28,11.59,3.45,3.91,6.78,7.73,10,11.45,3.22,3.73,6.09,7.15,8.62,10.28,2.53,3.13,4.57,5.89,6.14,8.28,1.56,2.39,2.39,4.19,2.48,5.38h-33.11c0-1.1-.41-2.35-1.24-3.73-.83-1.38-1.91-2.94-3.24-4.69-1.33-1.75-2.85-3.59-4.55-5.52-1.7-1.93-3.43-4-5.17-6.21l-14.07-17.25v18.76c0,5.33,.5,9.36,1.52,12.07,1.01,2.71,2.16,4.9,3.45,6.55h-36.84Z"
              />
              <path
                style="fill: none;
                    stroke: #ededed;
                    stroke-miterlimit: 10;
                    stroke-width: 3px;"
                d="M892.14,1532.56c-5.69,0-10.8-.89-15.33-2.67-4.53-1.78-8.37-4.27-11.52-7.46-3.15-3.19-5.57-6.99-7.25-11.42-1.68-4.42-2.52-9.27-2.52-14.55s.72-9.94,2.16-14.4c1.44-4.46,3.63-8.36,6.58-11.72,2.95-3.36,6.7-6,11.26-7.92,4.56-1.92,9.93-2.88,16.1-2.88,2.19,0,4.39,.17,6.58,.51,2.19,.34,4.32,.91,6.38,1.7,2.06,.79,3.96,1.82,5.71,3.09,1.75,1.27,3.2,2.83,4.37,4.68,1.37,2.13,1.97,4.41,1.8,6.84-.17,2.43-1.46,4.44-3.86,6.02-1.92,1.3-3.98,1.96-6.17,1.96s-4.25-.63-6.17-1.9c-1.92-1.27-3.5-3.03-4.73-5.3-.69-1.3-1.22-2.52-1.59-3.65-.38-1.13-.74-2.12-1.08-2.98-.34-.86-.74-1.53-1.18-2.01-.45-.48-1.05-.72-1.8-.72-1.44,0-2.83,.72-4.17,2.16-1.34,1.44-2.52,3.45-3.55,6.02-1.03,2.57-1.85,5.62-2.47,9.15-.62,3.53-.93,7.35-.93,11.47s.34,7.47,1.03,10.7c.68,3.22,1.66,6.05,2.93,8.49,1.27,2.43,2.84,4.37,4.73,5.81,1.89,1.44,4.03,2.3,6.43,2.57v-9.15c0-3.98-.36-6.98-1.08-9-.72-2.02-1.59-3.65-2.62-4.89h27.46c-.96,1.23-1.82,2.86-2.57,4.89-.76,2.02-1.13,5.02-1.13,9v3.7c0,3.98,.38,6.98,1.13,9,.75,2.02,1.61,3.65,2.57,4.89h-25.51Z"
              />
              <path
                style="fill: none;
                    stroke: #ededed;
                    stroke-miterlimit: 10;
                    stroke-width: 3px;"
                d="M984.81,1480.31c0,3.36-.45,6.22-1.34,8.59-.89,2.37-2.21,4.34-3.96,5.91-1.75,1.58-3.86,2.83-6.33,3.75s-5.31,1.59-8.54,2.01c2.67,3.36,5.09,6.79,7.25,10.29,2.16,3.5,4.08,6.74,5.76,9.72,1.68,2.98,3.19,5.55,4.53,7.71,1.34,2.16,2.55,3.58,3.65,4.27h-27.77c0-1.58-.19-3.53-.57-5.86-.38-2.33-1.46-5.38-3.24-9.15l-7.51-15.53v16.66c0,3.98,.38,6.98,1.13,9,.75,2.02,1.61,3.65,2.57,4.89h-27.46c.96-1.23,1.82-2.86,2.57-4.89,.75-2.02,1.13-5.02,1.13-9v-44.23c0-3.98-.38-6.98-1.13-9-.76-2.02-1.61-3.65-2.57-4.89h31.78c4.32,0,8.31,.27,11.98,.82,3.67,.55,6.84,1.56,9.51,3.03,2.67,1.47,4.77,3.5,6.27,6.07,1.51,2.57,2.26,5.85,2.26,9.82Zm-38.06,11.11c0,1.17,.32,1.97,.98,2.42,.65,.45,1.66,.67,3.03,.67,1.23,0,2.57-.09,4.01-.26,1.44-.17,2.81-.68,4.11-1.54,1.3-.86,2.38-2.25,3.24-4.17,.86-1.92,1.29-4.63,1.29-8.13,0-3.02-.43-5.42-1.29-7.2-.86-1.78-1.9-3.15-3.14-4.11-1.23-.96-2.52-1.58-3.86-1.85-1.34-.27-2.52-.41-3.55-.41-3.22,0-4.83,1.06-4.83,3.19v21.39Z"
              />
              <path
                style="fill: none;
                    stroke: #ededed;
                    stroke-miterlimit: 10;
                    stroke-width: 3px;"
                d="M1025.43,1533.59c-5.9,0-11.01-.94-15.33-2.83-4.32-1.89-7.89-4.49-10.7-7.82-2.81-3.33-4.9-7.25-6.27-11.78-1.37-4.53-2.06-9.43-2.06-14.71s.7-9.94,2.11-14.4c1.4-4.46,3.55-8.36,6.43-11.72,2.88-3.36,6.46-6,10.75-7.92,4.28-1.92,9.31-2.88,15.07-2.88s10.78,.96,15.07,2.88c4.29,1.92,7.87,4.56,10.75,7.92,2.88,3.36,5.02,7.27,6.43,11.72,1.4,4.46,2.11,9.26,2.11,14.4s-.69,10.18-2.06,14.71c-1.37,4.53-3.46,8.45-6.27,11.78-2.81,3.33-6.38,5.93-10.7,7.82-4.32,1.88-9.43,2.83-15.33,2.83Zm0-7.2c1.44,0,2.83-.79,4.17-2.37,1.34-1.58,2.52-3.7,3.55-6.38,1.03-2.67,1.83-5.83,2.42-9.46,.58-3.63,.87-7.51,.87-11.62s-.29-7.99-.87-11.62c-.58-3.63-1.39-6.79-2.42-9.46-1.03-2.67-2.21-4.8-3.55-6.38-1.34-1.58-2.72-2.37-4.17-2.37s-2.83,.79-4.17,2.37c-1.34,1.58-2.52,3.7-3.55,6.38-1.03,2.67-1.85,5.83-2.47,9.46-.62,3.64-.93,7.51-.93,11.62s.31,7.99,.93,11.62c.62,3.64,1.44,6.79,2.47,9.46,1.03,2.67,2.21,4.8,3.55,6.38,1.34,1.58,2.73,2.37,4.17,2.37Z"
              />
              <path
                style="fill: none;
                    stroke: #ededed;
                    stroke-miterlimit: 10;
                    stroke-width: 3px;"
                d="M1068.73,1509v-34.56c0-3.98-.38-6.99-1.13-9.05-.75-2.06-1.61-3.67-2.57-4.83h27.46c-1.03,1.17-1.9,2.78-2.62,4.83-.72,2.06-1.08,5.08-1.08,9.05v36.92c0,5.14,1.08,8.88,3.24,11.21,2.16,2.33,5.47,3.5,9.92,3.5,3.91,0,6.99-1.23,9.26-3.7,2.26-2.47,3.46-6.14,3.6-11.01l.62-36.92c.07-3.98-.29-6.99-1.08-9.05-.79-2.06-1.66-3.67-2.62-4.83h14.4c-.96,1.17-1.82,2.78-2.57,4.83-.75,2.06-1.13,5.08-1.13,9.05v34.56c0,4.53-.43,8.37-1.29,11.52-.86,3.16-2.26,5.69-4.22,7.61-1.95,1.92-4.47,3.31-7.56,4.17-3.09,.86-6.89,1.29-11.42,1.29-5.62,0-10.3-.41-14.04-1.23-3.74-.82-6.74-2.19-9-4.11-2.26-1.92-3.86-4.46-4.78-7.61-.93-3.15-1.39-7.03-1.39-11.62Z"
              />
              <path
                style="fill: none;
                    stroke: #ededed;
                    stroke-miterlimit: 10;
                    stroke-width: 3px;"
                d="M1192.16,1481.34c0,4.18-.72,7.68-2.16,10.49-1.44,2.81-3.57,5.08-6.38,6.79-2.81,1.71-6.24,2.93-10.29,3.65-4.05,.72-8.71,1.08-13.99,1.08h-4.22v15.33c0,3.98,.38,6.98,1.13,9,.75,2.02,1.61,3.65,2.57,4.89h-27.46c.96-1.23,1.82-2.86,2.57-4.89,.75-2.02,1.13-5.02,1.13-9v-44.23c0-3.98-.38-6.98-1.13-9-.75-2.02-1.61-3.65-2.57-4.89h31.78c4.32,0,8.24,.29,11.78,.87,3.53,.58,6.58,1.65,9.15,3.19s4.56,3.65,5.97,6.33c1.4,2.67,2.11,6.14,2.11,10.39Zm-37.03,11.52c0,2.47,1.27,3.7,3.81,3.7,1.23,0,2.55-.19,3.96-.57,1.4-.38,2.69-1.1,3.86-2.16,1.17-1.06,2.12-2.59,2.88-4.58,.75-1.99,1.13-4.59,1.13-7.82s-.38-5.9-1.13-7.82c-.76-1.92-1.7-3.38-2.83-4.37-1.13-.99-2.38-1.65-3.75-1.95-1.37-.31-2.64-.46-3.81-.46-1.1,0-2.06,.15-2.88,.46-.82,.31-1.23,.84-1.23,1.59v23.96Z"
              />
                </symbol>

              <symbol id="garik-group-logo-2" viewBox="0 0 2048 2048">
                  
              <polygon
                style="fill: none;"
                points="482.59 1102.7 482.59 1214.87 448.13 1220.03 448.13 1107.87 482.59 1102.7"
              />
              <polygon
                style="fill: none;"
                points="535.52 1095.71 535.52 1207.88 493.17 1213.04 493.17 1100.88 535.52 1095.71"
              />
              <path
                style="stroke: #ededed;
                stroke-miterlimit: 10;
                stroke-width: 3px;
                fill: none;"
                d="M394.19,1058.75v225.73c51.44-21.75,124.59-36.1,206.7-38.25v-211.37l-206.7,23.9Zm88.4,156.12l-34.46,5.16v-112.16l34.46-5.17v112.17Zm52.93-6.99l-42.34,5.16v-112.16l42.34-5.17v112.17Z"
              />
              <polygon
                style="stroke: #ededed;
                stroke-miterlimit: 10;
                stroke-width: 3px;
                fill: none;"
                points="871.11 1047.32 840.11 1040.95 831.82 1017.89 733.86 745.69 603.25 1034.58 600.89 1034.86 394.19 1058.75 359.17 1062.8 509.16 763.39 571.77 747.52 571.77 694.94 595.01 689.05 595.01 882.65 622.4 822.07 622.4 734.69 667.02 723.38 667.03 723.38 744.92 703.63 871.11 1047.32"
              />
              <path
                style="stroke: #ededed;
                stroke-miterlimit: 10;
                stroke-width: 3px;
                fill: none;"
                d="M831.82,1017.89v259.32c-20.53-7.28-43.75-13.5-69.04-18.43v-176.73l-65.99-6.23v173.57c-23.81-2.25-48.72-3.44-74.38-3.44-7.23,0-14.41,.09-21.51,.28v-206.45l2.35-5.21,130.61-288.88,97.96,272.2Z"
              />
              <path
                style="fill: none;"
                d="M762.77,1082.04v176.73c-20.72-4.04-42.83-7.22-65.99-9.39v-173.57l65.99,6.23Z"
              />
              <path
                style="stroke: #ededed;
                stroke-miterlimit: 10;
                stroke-width: 3px;
                fill: none;"
                d="M924.18,1343.62c-63.49-37.4-174.92-62.2-301.78-62.2s-238.29,24.79-301.78,62.2c8.85-22.51,35.15-42.89,73.56-59.13,51.44-21.75,124.59-36.1,206.7-38.25,7.1-.19,14.28-.28,21.51-.28,25.65,0,50.56,1.19,74.38,3.44,23.16,2.17,45.28,5.35,65.99,9.39,25.29,4.94,48.51,11.16,69.04,18.43,48.61,17.24,82.13,40.4,92.36,66.41Z"
              />
              <path
                style="stroke: #ededed;
                stroke-miterlimit: 10;
                stroke-width: 3px;
                fill: none;"
                d="M1035.71,978.94c-14.93,0-28.33-2.34-40.2-7.02-11.87-4.68-21.95-11.2-30.22-19.56-8.28-8.36-14.62-18.35-19.02-29.95-4.41-11.6-6.61-24.33-6.61-38.18s1.89-26.08,5.67-37.77c3.78-11.69,9.53-21.94,17.27-30.76,7.73-8.81,17.58-15.74,29.54-20.78,11.96-5.03,26.04-7.55,42.23-7.55,5.76,0,11.51,.45,17.27,1.35,5.75,.9,11.33,2.39,16.73,4.45,5.4,2.07,10.39,4.77,14.97,8.09,4.59,3.33,8.41,7.42,11.47,12.28,3.6,5.58,5.17,11.56,4.72,17.94-.45,6.39-3.82,11.65-10.12,15.78-5.04,3.42-10.43,5.13-16.19,5.13s-11.15-1.66-16.19-4.99c-5.04-3.33-9.17-7.96-12.41-13.9-1.8-3.42-3.2-6.61-4.18-9.58-.99-2.97-1.94-5.57-2.83-7.82-.9-2.25-1.94-4-3.1-5.26-1.17-1.26-2.74-1.89-4.72-1.89-3.78,0-7.42,1.89-10.93,5.67-3.51,3.78-6.61,9.04-9.31,15.78-2.7,6.75-4.86,14.75-6.48,24.01-1.62,9.27-2.43,19.29-2.43,30.08s.9,19.61,2.7,28.06c1.8,8.46,4.36,15.88,7.69,22.26,3.33,6.39,7.46,11.47,12.41,15.24,4.94,3.78,10.57,6.03,16.86,6.75v-24.01c0-10.43-.95-18.3-2.83-23.61-1.89-5.3-4.18-9.58-6.88-12.82h72.04c-2.52,3.24-4.77,7.51-6.75,12.82-1.98,5.31-2.97,13.18-2.97,23.61v9.71c0,10.43,.99,18.31,2.97,23.61,1.98,5.31,4.22,9.58,6.75,12.82h-66.91Z"
              />
              <path
                style="stroke: #ededed;
                stroke-miterlimit: 10;
                stroke-width: 3px;
                fill: none;"
                d="M1220.8,978.94c2.52-3.24,4.14-7.6,4.86-13.09,.72-5.48-.36-13.26-3.24-23.34l-8.36-30.22h-54.77l-8.36,30.22c-2.88,10.08-3.96,17.85-3.24,23.34,.72,5.49,2.33,9.85,4.86,13.09h-38.58c2.52-3.24,5.4-7.6,8.63-13.09,3.24-5.48,6.29-13.26,9.17-23.34l32.38-116.02c2.7-10.07,3.73-17.9,3.1-23.47-.63-5.57-2.21-9.89-4.72-12.95h81.75c-2.52,3.06-4.14,7.38-4.86,12.95-.72,5.58,.36,13.4,3.24,23.47l32.38,116.02c2.88,10.08,5.94,17.85,9.17,23.34,3.24,5.49,6.11,9.85,8.63,13.09h-72.04Zm-11.06-81.75l-19.7-70.69c-1.08-4.14-2.16-7.64-3.24-10.52-.72,1.44-1.35,3.06-1.89,4.86-.54,1.8-1.08,3.69-1.62,5.67l-19.7,70.69h46.14Z"
              />
              <path
                style="stroke: #ededed;
                stroke-miterlimit: 10;
                stroke-width: 3px;
                fill: none;"
                d="M1466.33,841.88c0,8.82-1.17,16.32-3.51,22.53-2.34,6.21-5.8,11.38-10.39,15.51-4.59,4.14-10.12,7.42-16.59,9.85-6.48,2.43-13.94,4.18-22.39,5.26,7.01,8.82,13.36,17.81,19.02,26.98,5.67,9.17,10.7,17.67,15.11,25.5,4.41,7.82,8.36,14.57,11.87,20.24s6.7,9.4,9.58,11.2h-72.85c0-4.14-.5-9.26-1.48-15.38-.99-6.11-3.82-14.12-8.5-24.01l-19.7-40.74v43.71c0,10.43,.99,18.31,2.97,23.61,1.98,5.31,4.22,9.58,6.75,12.82h-72.04c2.52-3.24,4.76-7.51,6.75-12.82,1.98-5.3,2.97-13.17,2.97-23.61v-116.02c0-10.43-.99-18.3-2.97-23.61-1.98-5.3-4.23-9.58-6.75-12.82h83.37c11.33,0,21.81,.72,31.43,2.16,9.62,1.44,17.94,4.09,24.96,7.96,7.01,3.87,12.5,9.17,16.46,15.92,3.96,6.75,5.94,15.34,5.94,25.77Zm-99.83,29.14c0,3.06,.85,5.17,2.56,6.34,1.71,1.17,4.36,1.75,7.96,1.75,3.24,0,6.75-.22,10.52-.67,3.78-.45,7.37-1.8,10.79-4.05,3.41-2.25,6.25-5.89,8.5-10.93,2.25-5.03,3.37-12.14,3.37-21.32,0-7.91-1.12-14.21-3.37-18.89-2.25-4.68-4.99-8.27-8.23-10.79-3.24-2.52-6.61-4.14-10.12-4.86-3.51-.72-6.61-1.08-9.31-1.08-8.46,0-12.68,2.79-12.68,8.36v56.12Z"
              />
              <path
                style="stroke: #ededed;
                stroke-miterlimit: 10;
                stroke-width: 3px;
                fill: none;"
                d="M1482.79,978.94c2.52-3.24,4.76-7.51,6.75-12.82,1.98-5.3,2.97-13.17,2.97-23.61v-116.02c0-10.43-.99-18.35-2.97-23.74-1.98-5.4-4.23-9.62-6.75-12.68h72.04c-2.52,3.06-4.77,7.29-6.75,12.68-1.98,5.4-2.97,13.31-2.97,23.74v116.02c0,10.43,.99,18.31,2.97,23.61,1.98,5.31,4.22,9.58,6.75,12.82h-72.04Z"
              />
              <path
                style="stroke: #ededed;
                stroke-miterlimit: 10;
                stroke-width: 3px;
                fill: none;"
                d="M1568.86,978.94c2.52-3.24,4.76-7.51,6.75-12.82,1.98-5.3,2.97-13.17,2.97-23.61v-116.02c0-10.43-.99-18.35-2.97-23.74-1.98-5.4-4.23-9.62-6.75-12.68h72.04c-2.52,3.06-4.77,7.29-6.75,12.68-1.98,5.4-2.97,13.31-2.97,23.74v42.09l41.55-48.84c.72-.9,1.98-2.65,3.78-5.26,1.8-2.61,3.6-5.44,5.4-8.5,1.8-3.06,3.37-6.07,4.72-9.04,1.35-2.97,1.93-5.26,1.75-6.88h39.12c-4.68,2.7-9.85,6.93-15.51,12.68-5.67,5.76-11.47,12.14-17.4,19.16-5.94,7.02-11.92,14.39-17.94,22.12-6.03,7.74-11.74,15.02-17.13,21.85,5.57,6.66,11.69,13.72,18.35,21.18,6.65,7.47,13.36,15.02,20.1,22.66,6.75,7.65,13.26,15.11,19.56,22.39,6.29,7.29,11.91,13.99,16.86,20.1,4.95,6.12,8.95,11.51,12.01,16.19,3.06,4.68,4.68,8.19,4.86,10.52h-64.75c0-2.16-.81-4.59-2.43-7.29-1.62-2.7-3.74-5.75-6.34-9.17-2.61-3.42-5.58-7.02-8.9-10.79-3.33-3.78-6.7-7.82-10.12-12.14l-27.52-33.73v36.69c0,10.43,.99,18.31,2.97,23.61,1.98,5.31,4.22,9.58,6.75,12.82h-72.04Z"
              />
              <path
                style="stroke: #ededed;
                stroke-miterlimit: 10;
                stroke-width: 3px;
                fill: none;"
                d="M1087.9,1190.39c-11.13,0-21.12-1.74-29.97-5.23-8.85-3.49-16.36-8.35-22.53-14.58-6.17-6.24-10.9-13.68-14.18-22.33-3.29-8.65-4.93-18.13-4.93-28.46s1.41-19.44,4.22-28.16c2.82-8.72,7.11-16.36,12.87-22.93,5.76-6.57,13.11-11.73,22.03-15.49,8.92-3.75,19.41-5.63,31.48-5.63,4.29,0,8.58,.34,12.87,1.01,4.29,.67,8.45,1.78,12.47,3.32,4.02,1.54,7.74,3.55,11.16,6.03,3.42,2.48,6.27,5.53,8.55,9.15,2.68,4.16,3.85,8.62,3.52,13.38-.34,4.76-2.85,8.68-7.54,11.77-3.75,2.55-7.78,3.82-12.07,3.82s-8.31-1.24-12.07-3.72c-3.75-2.48-6.84-5.93-9.25-10.36-1.34-2.55-2.38-4.93-3.12-7.14-.74-2.21-1.44-4.15-2.11-5.83-.67-1.67-1.44-2.98-2.31-3.92-.87-.94-2.04-1.41-3.52-1.41-2.82,0-5.53,1.41-8.15,4.22-2.61,2.82-4.93,6.74-6.94,11.77-2.01,5.03-3.62,11-4.83,17.9-1.21,6.91-1.81,14.38-1.81,22.43s.67,14.62,2.01,20.92c1.34,6.3,3.25,11.84,5.73,16.59,2.48,4.76,5.56,8.55,9.25,11.36,3.69,2.82,7.88,4.49,12.57,5.03v-17.9c0-7.78-.71-13.64-2.11-17.6-1.41-3.95-3.12-7.14-5.13-9.55h53.71c-1.88,2.41-3.55,5.6-5.03,9.55-1.48,3.96-2.21,9.82-2.21,17.6v7.24c0,7.78,.74,13.65,2.21,17.6,1.47,3.96,3.15,7.14,5.03,9.55h-49.88Z"
              />
              <path
                style="stroke: #ededed;
                stroke-miterlimit: 10;
                stroke-width: 3px;
                fill: none;"
                d="M1269.12,1088.21c0,6.57-.87,12.17-2.62,16.79-1.74,4.63-4.32,8.48-7.74,11.57-3.42,3.09-7.54,5.53-12.37,7.34-4.83,1.81-10.39,3.12-16.7,3.92,5.23,6.57,9.96,13.27,14.18,20.11s7.98,13.17,11.26,19.01c3.28,5.83,6.24,10.86,8.85,15.08,2.61,4.22,4.99,7.01,7.14,8.35h-54.31c0-3.08-.37-6.9-1.11-11.46-.74-4.56-2.85-10.53-6.34-17.9l-14.68-30.37v32.58c0,7.78,.74,13.65,2.21,17.6,1.47,3.96,3.15,7.14,5.03,9.55h-53.7c1.88-2.41,3.55-5.6,5.03-9.55,1.47-3.95,2.21-9.82,2.21-17.6v-86.49c0-7.78-.74-13.64-2.21-17.6-1.48-3.95-3.15-7.14-5.03-9.55h62.15c8.45,0,16.26,.54,23.43,1.61,7.17,1.08,13.38,3.05,18.61,5.93,5.23,2.89,9.32,6.84,12.27,11.87,2.95,5.03,4.42,11.43,4.42,19.21Zm-74.42,21.72c0,2.28,.63,3.86,1.91,4.73,1.27,.87,3.25,1.31,5.93,1.31,2.41,0,5.03-.17,7.84-.5,2.82-.33,5.5-1.34,8.04-3.02,2.55-1.67,4.66-4.39,6.34-8.15,1.68-3.75,2.51-9.05,2.51-15.89,0-5.9-.84-10.59-2.51-14.08-1.68-3.49-3.72-6.17-6.13-8.05-2.41-1.88-4.93-3.08-7.54-3.62-2.62-.53-4.93-.8-6.94-.8-6.3,0-9.45,2.08-9.45,6.24v41.84Z"
              />
              <path
                style="stroke: #ededed;
                stroke-miterlimit: 10;
                stroke-width: 3px;
                fill: none;"
                d="M1348.57,1192.4c-11.53,0-21.52-1.84-29.97-5.53-8.45-3.69-15.42-8.78-20.92-15.29-5.5-6.5-9.59-14.18-12.27-23.03-2.68-8.85-4.02-18.44-4.02-28.76s1.37-19.44,4.12-28.16c2.75-8.72,6.94-16.36,12.57-22.93,5.63-6.57,12.64-11.73,21.02-15.49,8.38-3.75,18.2-5.63,29.47-5.63s21.08,1.88,29.47,5.63c8.38,3.76,15.39,8.92,21.02,15.49,5.63,6.57,9.82,14.21,12.57,22.93,2.75,8.72,4.12,18.1,4.12,28.16s-1.34,19.91-4.02,28.76c-2.68,8.85-6.77,16.53-12.27,23.03-5.5,6.51-12.47,11.6-20.92,15.29-8.45,3.69-18.44,5.53-29.97,5.53Zm0-14.08c2.82,0,5.53-1.54,8.15-4.63,2.62-3.08,4.93-7.24,6.94-12.47,2.01-5.23,3.59-11.4,4.73-18.5,1.14-7.11,1.71-14.68,1.71-22.73s-.57-15.62-1.71-22.73c-1.14-7.11-2.72-13.28-4.73-18.5-2.01-5.23-4.32-9.38-6.94-12.47-2.61-3.08-5.33-4.63-8.15-4.63s-5.53,1.54-8.15,4.63c-2.61,3.09-4.93,7.24-6.94,12.47-2.01,5.23-3.62,11.4-4.83,18.5-1.21,7.11-1.81,14.68-1.81,22.73s.6,15.62,1.81,22.73c1.21,7.11,2.82,13.28,4.83,18.5,2.01,5.23,4.33,9.39,6.94,12.47,2.62,3.09,5.33,4.63,8.15,4.63Z"
              />
              <path
                style="stroke: #ededed;
                stroke-miterlimit: 10;
                stroke-width: 3px;
                fill: none;"
                d="M1433.25,1144.33v-67.58c0-7.78-.74-13.68-2.21-17.7-1.48-4.02-3.15-7.17-5.03-9.45h53.7c-2.01,2.28-3.72,5.43-5.13,9.45s-2.11,9.92-2.11,17.7v72.21c0,10.06,2.11,17.37,6.34,21.92,4.22,4.56,10.69,6.84,19.41,6.84,7.64,0,13.68-2.41,18.1-7.24,4.42-4.83,6.77-12,7.04-21.52l1.21-72.21c.13-7.78-.57-13.68-2.11-17.7-1.54-4.02-3.25-7.17-5.13-9.45h28.16c-1.88,2.28-3.55,5.43-5.03,9.45-1.48,4.02-2.21,9.92-2.21,17.7v67.58c0,8.85-.84,16.36-2.51,22.53-1.68,6.17-4.43,11.13-8.25,14.88-3.82,3.76-8.75,6.47-14.78,8.15s-13.48,2.51-22.33,2.51c-11,0-20.15-.8-27.46-2.41-7.31-1.61-13.17-4.29-17.6-8.05-4.42-3.75-7.54-8.71-9.35-14.88-1.81-6.17-2.71-13.74-2.71-22.73Z"
              />
              <path
                style="stroke: #ededed;
                stroke-miterlimit: 10;
                stroke-width: 3px;
                fill: none;"
                d="M1674.61,1090.22c0,8.18-1.41,15.02-4.22,20.52-2.82,5.5-6.97,9.93-12.47,13.28-5.5,3.35-12.2,5.73-20.11,7.14-7.91,1.41-17.03,2.11-27.35,2.11h-8.25v29.97c0,7.78,.74,13.65,2.21,17.6,1.47,3.96,3.15,7.14,5.03,9.55h-53.7c1.88-2.41,3.55-5.6,5.03-9.55,1.47-3.95,2.21-9.82,2.21-17.6v-86.49c0-7.78-.74-13.64-2.21-17.6-1.48-3.95-3.15-7.14-5.03-9.55h62.15c8.45,0,16.12,.57,23.03,1.71,6.9,1.14,12.87,3.22,17.9,6.24,5.03,3.02,8.92,7.14,11.67,12.37,2.75,5.23,4.12,12,4.12,20.32Zm-72.41,22.53c0,4.83,2.48,7.24,7.44,7.24,2.41,0,4.99-.37,7.74-1.11,2.75-.74,5.26-2.14,7.54-4.22,2.28-2.08,4.16-5.06,5.63-8.95,1.47-3.89,2.21-8.98,2.21-15.29s-.74-11.53-2.21-15.29c-1.48-3.75-3.32-6.6-5.53-8.55-2.21-1.94-4.66-3.22-7.34-3.82-2.68-.6-5.16-.9-7.44-.9-2.15,0-4.02,.3-5.63,.9-1.61,.6-2.41,1.64-2.41,3.12v46.87Z"
              />
                </symbol>

              <symbol id="garik-group-logo-3" viewBox="0 0 2048 2048">
                  
              <polygon
                style="fill: none;"
                points="884.19 1110.37 884.19 1222.53 849.73 1227.69 849.73 1115.54 884.19 1110.37"
              />
              <polygon
                style="fill: none;"
                points="937.11 1103.38 937.11 1215.55 894.77 1220.71 894.77 1108.55 937.11 1103.38"
              />
              <path
                style="stroke: #ededed;
                    stroke-miterlimit: 10;
                    stroke-width: 3px;
                    fill: none;"
                d="M795.79,1066.42v225.73c51.44-21.75,124.59-36.1,206.7-38.25v-211.37l-206.7,23.9Zm88.4,156.12l-34.46,5.16v-112.16l34.46-5.17v112.17Zm52.93-6.99l-42.34,5.16v-112.16l42.34-5.17v112.17Z"
              />
              <polygon
                style="stroke: #ededed;
                    stroke-miterlimit: 10;
                    stroke-width: 3px;
                    fill: none;"
                points="1272.71 1054.98 1241.71 1048.61 1233.42 1025.55 1135.46 753.36 1004.84 1042.24 1002.49 1042.52 795.79 1066.42 760.77 1070.47 910.76 771.06 973.37 755.19 973.37 702.61 996.61 696.72 996.61 890.32 1024 829.74 1024 742.35 1068.61 731.05 1068.62 731.05 1146.52 711.3 1272.71 1054.98"
              />
              <path
                style="stroke: #ededed;
                    stroke-miterlimit: 10;
                    stroke-width: 3px;
                    fill: none;"
                d="M1233.42,1025.55v259.32c-20.53-7.28-43.75-13.5-69.04-18.43v-176.73l-65.99-6.23v173.57c-23.81-2.25-48.72-3.44-74.38-3.44-7.23,0-14.41,.09-21.51,.28v-206.45l2.35-5.21,130.61-288.88,97.96,272.2Z"
              />
              <path
                style="fill: none;"
                d="M1164.37,1089.71v176.73c-20.72-4.04-42.83-7.22-65.99-9.39v-173.57l65.99,6.23Z"
              />
              <path
                style="stroke: #ededed;
                    stroke-miterlimit: 10;
                    stroke-width: 3px;
                    fill: none;"
                d="M1325.78,1351.28c-63.49-37.4-174.92-62.2-301.78-62.2s-238.29,24.79-301.78,62.2c8.85-22.51,35.15-42.89,73.56-59.13,51.44-21.75,124.59-36.1,206.7-38.25,7.1-.19,14.28-.28,21.51-.28,25.65,0,50.56,1.19,74.38,3.44,23.16,2.17,45.28,5.35,65.99,9.39,25.29,4.94,48.51,11.16,69.04,18.43,48.61,17.24,82.13,40.4,92.36,66.41Z"
              />
                </symbol>

              </defs>
</svg>